<svg xmlns="http://www.w3.org/2000/svg" width="20.571" height="34.286" viewBox="0 0 20.571 34.286">
  <path id="icon_phone" data-name="icon phone" d="M1221.108,247.695a2.149,2.149,0,1,1,1.513-.63A2.061,2.061,0,0,1,1221.108,247.695Zm7.46-5.826a.826.826,0,0,1-.6.254H1214.25a.869.869,0,0,1-.857-.857V222.409a.869.869,0,0,1,.857-.857h13.714a.868.868,0,0,1,.857.857v18.857A.825.825,0,0,1,1228.568,241.869Zm-5.318-22.888h-4.285a.429.429,0,0,1,0-.857h4.285a.429.429,0,1,1,0,.857Zm7.125-3.268a3.3,3.3,0,0,0-2.411-1.018H1214.25a3.477,3.477,0,0,0-3.428,3.429v27.429a3.476,3.476,0,0,0,3.428,3.428h13.714a3.476,3.476,0,0,0,3.428-3.428V218.123A3.3,3.3,0,0,0,1230.375,215.712Z" transform="translate(-1210.822 -214.695)" fill="#582b81"/>
</svg>
