<svg xmlns="http://www.w3.org/2000/svg" width="28.8" height="22.394" viewBox="0 0 28.8 22.394">
  <path id="Icon-email" d="M1233.2,296.331a.5.5,0,0,1-.361.151h-23.657a.494.494,0,0,1-.361-.151.483.483,0,0,1-.152-.358V283.758a9.274,9.274,0,0,0,1.108,1.049q4.307,3.277,6.847,5.376.819.684,1.334,1.066a7.423,7.423,0,0,0,1.39.771,4.065,4.065,0,0,0,1.647.39h.032a4.069,4.069,0,0,0,1.648-.39,7.464,7.464,0,0,0,1.39-.771q.514-.381,1.334-1.066,2.539-2.1,6.846-5.376a9.4,9.4,0,0,0,1.109-1.049v12.215A.485.485,0,0,1,1233.2,296.331Zm-.594-14.982a7.523,7.523,0,0,1-1.615,1.837q-3.1,2.417-6.445,5.041l-.562.469q-.467.39-.739.6t-.715.5a4.294,4.294,0,0,1-.812.437,1.92,1.92,0,0,1-.691.143h-.032a1.92,1.92,0,0,1-.691-.143,4.285,4.285,0,0,1-.811-.437q-.443-.294-.715-.5t-.739-.6l-.562-.469q-3.343-2.624-6.445-5.041a5.549,5.549,0,0,1-2.362-4.517.485.485,0,0,1,.152-.358.5.5,0,0,1,.361-.151h23.657a.594.594,0,0,1,.225.04.293.293,0,0,1,.145.119c.032.053.062.1.089.143a.43.43,0,0,1,.048.2q.008.135.008.207v.389A3.946,3.946,0,0,1,1232.6,281.349Zm2.049-4.477a2.491,2.491,0,0,0-1.816-.747h-23.657a2.488,2.488,0,0,0-1.816.747,2.438,2.438,0,0,0-.756,1.8v17.3a2.437,2.437,0,0,0,.756,1.8,2.488,2.488,0,0,0,1.816.747h23.657a2.491,2.491,0,0,0,1.816-.747,2.441,2.441,0,0,0,.755-1.8v-17.3A2.442,2.442,0,0,0,1234.651,276.871Z" transform="translate(-1206.606 -276.124)" fill="#582b81"/>
</svg>
