<svg width="29" height="29" viewBox="0 0 29 29" fill="#fee479" xmlns="http://www.w3.org/2000/svg">
<g clip-path="url(#clip0)">
<path d="M26.3523 0H2.62086C1.17341 0 0 1.17341 0 2.62086V26.3522C0 27.7997 1.17341 28.9732 2.62086 28.9732H26.3522C27.7997 28.9732 28.9732 27.7997 28.9732 26.3522V2.62086C28.9732 1.17341 27.7997 0 26.3523 0ZM8.96552 25.0173C8.96552 25.4386 8.62406 25.78 8.20282 25.78H4.95615C4.53491 25.78 4.19345 25.4386 4.19345 25.0173V11.4075C4.19345 10.9862 4.53491 10.6448 4.95615 10.6448H8.20282C8.62406 10.6448 8.96552 10.9862 8.96552 11.4075V25.0173ZM6.57948 9.36182C4.87606 9.36182 3.49513 7.98089 3.49513 6.27747C3.49513 4.57404 4.87606 3.19311 6.57948 3.19311C8.28291 3.19311 9.66384 4.57404 9.66384 6.27747C9.66384 7.98089 8.28298 9.36182 6.57948 9.36182ZM25.9325 25.0788C25.9325 25.466 25.6185 25.78 25.2312 25.78H21.7473C21.36 25.78 21.046 25.466 21.046 25.0788V18.695C21.046 17.7426 21.3254 14.5218 18.5573 14.5218C16.4102 14.5218 15.9747 16.7264 15.8872 17.7157V25.0788C15.8872 25.466 15.5733 25.78 15.186 25.78H11.8164C11.4292 25.78 11.1151 25.466 11.1151 25.0788V11.346C11.1151 10.9588 11.4292 10.6448 11.8164 10.6448H15.186C15.5732 10.6448 15.8872 10.9588 15.8872 11.346V12.5334C16.6834 11.3386 17.8666 10.4164 20.3858 10.4164C25.9644 10.4164 25.9325 15.6282 25.9325 18.4918V25.0788Z" fill="inherit"/>
</g>
<defs>
<clipPath id="clip0">
<rect width="28.9732" height="28.9732" fill="white"/>
</clipPath>
</defs>
</svg>
