<svg width="30" height="29" viewBox="0 0 30 29" fill="none" xmlns="http://www.w3.org/2000/svg">
<g clip-path="url(#clip0)">
<path d="M25.744 0H4.57948C2.4233 0 0.675293 1.74794 0.675293 3.90419V25.0688C0.675293 27.2251 2.42323 28.973 4.57948 28.973H15.0177L15.0355 18.6196H12.3457C11.9961 18.6196 11.7124 18.337 11.7111 17.9874L11.6982 14.6501C11.6968 14.2986 11.9814 14.013 12.3329 14.013H15.0178V10.7883C15.0178 7.04604 17.3033 5.00836 20.6416 5.00836H23.381C23.7315 5.00836 24.0157 5.29251 24.0157 5.64306V8.45711C24.0157 8.80752 23.7317 9.09159 23.3813 9.0918L21.7002 9.09258C19.8847 9.09258 19.5332 9.95528 19.5332 11.2213V14.0131H23.5224C23.9025 14.0131 24.1975 14.345 24.1527 14.7225L23.7571 18.0598C23.7193 18.3791 23.4484 18.6198 23.1269 18.6198H19.551L19.5332 28.9732H25.7441C27.9003 28.9732 29.6482 27.2252 29.6482 25.069V3.90419C29.6482 1.74794 27.9002 0 25.744 0Z" fill="#fee479"/>
</g>
<defs>
<clipPath id="clip0">
<rect width="28.9732" height="28.9732" fill="white" transform="translate(0.674805)"/>
</clipPath>
</defs>
</svg>
