<svg width="30" height="29" viewBox="0 0 30 29" fill="none" xmlns="http://www.w3.org/2000/svg">
<g clip-path="url(#clip0)">
<path d="M20.5328 0H8.82218C4.06288 0 0.190918 3.87196 0.190918 8.63126V20.3419C0.190918 25.1012 4.06288 28.9732 8.82218 28.9732H20.5328C25.2921 28.9732 29.1641 25.1012 29.1641 20.3419V8.63126C29.164 3.87196 25.2921 0 20.5328 0ZM26.2494 20.3419C26.2494 23.499 23.69 26.0585 20.5328 26.0585H8.82218C5.66503 26.0585 3.10562 23.499 3.10562 20.3419V8.63126C3.10562 5.47406 5.66503 2.9147 8.82218 2.9147H20.5328C23.69 2.9147 26.2494 5.47406 26.2494 8.63126V20.3419Z" fill="#fee479"/>
<path d="M14.6776 6.99316C10.5457 6.99316 7.18408 10.3547 7.18408 14.4866C7.18408 18.6185 10.5457 21.9801 14.6776 21.9801C18.8095 21.9801 22.1711 18.6185 22.1711 14.4866C22.1711 10.3547 18.8095 6.99316 14.6776 6.99316ZM14.6776 19.0654C12.1488 19.0654 10.0988 17.0155 10.0988 14.4867C10.0988 11.9578 12.1488 9.90786 14.6776 9.90786C17.2064 9.90786 19.2564 11.9578 19.2564 14.4867C19.2564 17.0154 17.2063 19.0654 14.6776 19.0654Z" fill="#fee479"/>
<path d="M22.1852 8.8446C23.1769 8.8446 23.9808 8.04069 23.9808 7.04901C23.9808 6.05733 23.1769 5.25342 22.1852 5.25342C21.1936 5.25342 20.3896 6.05733 20.3896 7.04901C20.3896 8.04069 21.1936 8.8446 22.1852 8.8446Z" fill="#fee479"/>
</g>
<defs>
<clipPath id="clip0">
<rect width="28.9732" height="28.9732" fill="white" transform="translate(0.190918)"/>
</clipPath>
</defs>
</svg>
